HIERARCHY
ROOT Hips
{
    OFFSET   0.000000   0.000000   0.000000
    CHANNELS 6 Xposition Yposition Zposition Zrotation Xrotation Yrotation
    JOINT Chest
    {
        OFFSET   0.000000   8.007240   0.000000
        CHANNELS 3 Zrotation Xrotation Yrotation
        JOINT Chest2
        {
            OFFSET   0.000000  22.077100   0.000000
            CHANNELS 3 Zrotation Xrotation Yrotation
            JOINT Neck
            {
                OFFSET   0.000000  23.254800   0.000000
                CHANNELS 3 Zrotation Xrotation Yrotation
                JOINT Head
                {
                    OFFSET   0.000000  14.370000   1.956600
                    CHANNELS 3 Zrotation Xrotation Yrotation
                    End Site
                    {
                        OFFSET   0.000000  19.566000   0.000000
                    }
                }
            }
            JOINT LeftCollar
            {
                OFFSET   3.911900  19.017000  -0.467064
                CHANNELS 3 Zrotation Xrotation Yrotation
                JOINT LeftShoulder
                {
                    OFFSET  10.383700   0.000000   0.000000
                    CHANNELS 3 Zrotation Xrotation Yrotation
                    JOINT LeftElbow
                    {
                        OFFSET  26.662100   0.001476   0.000517
                        CHANNELS 3 Zrotation Xrotation Yrotation
                        JOINT LeftWrist
                        {
                            OFFSET  28.869000  -0.000025  -0.000106
                            CHANNELS 3 Zrotation Xrotation Yrotation
                            JOINT LeftFinger0
                            {
                                OFFSET   2.044660  -2.323460   3.252850
                                CHANNELS 3 Zrotation Xrotation Yrotation
                                JOINT LeftFinger01
                                {
                                    OFFSET   3.088130   0.000000   0.000000
                                    CHANNELS 3 Zrotation Xrotation Yrotation
                                    JOINT LeftFinger02
                                    {
                                        OFFSET   2.639460   0.000000   0.000000
                                        CHANNELS 3 Zrotation Xrotation Yrotation
                                        End Site
                                        {
                                            OFFSET   2.582190   0.000000   0.000000
                                        }
                                    }
                                }
                            }
                            JOINT LeftFinger1
                            {
                                OFFSET   8.364480   0.000000   3.252850
                                CHANNELS 3 Zrotation Xrotation Yrotation
                                JOINT LeftFinger11
                                {
                                    OFFSET   4.646930   0.000000   0.000000
                                    CHANNELS 3 Zrotation Xrotation Yrotation
                                    JOINT LeftFinger12
                                    {
                                        OFFSET   2.323460   0.000000   0.000000
                                        CHANNELS 3 Zrotation Xrotation Yrotation
                                        End Site
                                        {
                                            OFFSET   2.273050   0.000000   0.000000
                                        }
                                    }
                                }
                            }
                            JOINT LeftFinger2
                            {
                                OFFSET   8.364490   0.000015   1.078090
                                CHANNELS 3 Zrotation Xrotation Yrotation
                                JOINT LeftFinger21
                                {
                                    OFFSET   5.111620   0.000000   0.000000
                                    CHANNELS 3 Zrotation Xrotation Yrotation
                                    JOINT LeftFinger22
                                    {
                                        OFFSET   2.788160   0.000016   0.000000
                                        CHANNELS 3 Zrotation Xrotation Yrotation
                                        End Site
                                        {
                                            OFFSET   2.727660   0.000000   0.000000
                                        }
                                    }
                                }
                            }
                            JOINT LeftFinger3
                            {
                                OFFSET   7.899780   0.000017  -1.078090
                                CHANNELS 3 Zrotation Xrotation Yrotation
                                JOINT LeftFinger31
                                {
                                    OFFSET   4.646930   0.000000   0.000000
                                    CHANNELS 3 Zrotation Xrotation Yrotation
                                    JOINT LeftFinger32
                                    {
                                        OFFSET   2.323470   0.000000   0.000000
                                        CHANNELS 3 Zrotation Xrotation Yrotation
                                        End Site
                                        {
                                            OFFSET   2.273050   0.000000   0.000000
                                        }
                                    }
                                }
                            }
                            JOINT LeftFinger4
                            {
                                OFFSET   7.435090   0.000000  -3.252850
                                CHANNELS 3 Zrotation Xrotation Yrotation
                                JOINT LeftFinger41
                                {
                                    OFFSET   3.717550   0.000000   0.000000
                                    CHANNELS 3 Zrotation Xrotation Yrotation
                                    JOINT LeftFinger42
                                    {
                                        OFFSET   1.858770   0.000000   0.000000
                                        CHANNELS 3 Zrotation Xrotation Yrotation
                                        End Site
                                        {
                                            OFFSET   1.818440   0.000000   0.000000
                                        }
                                    }
                                }
                            }
                        }
                    }
                }
            }
            JOINT RightCollar
            {
                OFFSET  -3.911900  19.017000  -0.467063
                CHANNELS 3 Zrotation Xrotation Yrotation
                JOINT RightShoulder
                {
                    OFFSET -10.383700   0.000019   0.000000
                    CHANNELS 3 Zrotation Xrotation Yrotation
                    JOINT RightElbow
                    {
                        OFFSET -26.662100   0.001175   0.000102
                        CHANNELS 3 Zrotation Xrotation Yrotation
                        JOINT RightWrist
                        {
                            OFFSET -28.869000   0.000016  -0.000079
                            CHANNELS 3 Zrotation Xrotation Yrotation
                            JOINT RightFinger0
                            {
                                OFFSET  -2.044660  -2.323490   3.252850
                                CHANNELS 3 Zrotation Xrotation Yrotation
                                JOINT RightFinger01
                                {
                                    OFFSET  -3.088140   0.000000   0.000000
                                    CHANNELS 3 Zrotation Xrotation Yrotation
                                    JOINT RightFinger02
                                    {
                                        OFFSET  -2.639460   0.000000   0.000000
                                        CHANNELS 3 Zrotation Xrotation Yrotation
                                        End Site
                                        {
                                            OFFSET  -2.582190   0.000000   0.000000
                                        }
                                    }
                                }
                            }
                            JOINT RightFinger1
                            {
                                OFFSET  -8.364480   0.000000   3.252850
                                CHANNELS 3 Zrotation Xrotation Yrotation
                                JOINT RightFinger11
                                {
                                    OFFSET  -4.646930   0.000000   0.000000
                                    CHANNELS 3 Zrotation Xrotation Yrotation
                                    JOINT RightFinger12
                                    {
                                        OFFSET  -2.323470   0.000000   0.000000
                                        CHANNELS 3 Zrotation Xrotation Yrotation
                                        End Site
                                        {
                                            OFFSET  -2.273050   0.000000   0.000000
                                        }
                                    }
                                }
                            }
                            JOINT RightFinger2
                            {
                                OFFSET  -8.364480   0.000000   1.078090
                                CHANNELS 3 Zrotation Xrotation Yrotation
                                JOINT RightFinger21
                                {
                                    OFFSET  -5.111620   0.000000   0.000000
                                    CHANNELS 3 Zrotation Xrotation Yrotation
                                    JOINT RightFinger22
                                    {
                                        OFFSET  -2.788160   0.000000   0.000000
                                        CHANNELS 3 Zrotation Xrotation Yrotation
                                        End Site
                                        {
                                            OFFSET  -2.727660   0.000000   0.000000
                                        }
                                    }
                                }
                            }
                            JOINT RightFinger3
                            {
                                OFFSET  -7.899780   0.000000  -1.078090
                                CHANNELS 3 Zrotation Xrotation Yrotation
                                JOINT RightFinger31
                                {
                                    OFFSET  -4.646930   0.000000   0.000000
                                    CHANNELS 3 Zrotation Xrotation Yrotation
                                    JOINT RightFinger32
                                    {
                                        OFFSET  -2.323470   0.000000   0.000000
                                        CHANNELS 3 Zrotation Xrotation Yrotation
                                        End Site
                                        {
                                            OFFSET  -2.273050   0.000000   0.000000
                                        }
                                    }
                                }
                            }
                            JOINT RightFinger4
                            {
                                OFFSET  -7.435090   0.000000  -3.252850
                                CHANNELS 3 Zrotation Xrotation Yrotation
                                JOINT RightFinger41
                                {
                                    OFFSET  -3.717550   0.000000   0.000000
                                    CHANNELS 3 Zrotation Xrotation Yrotation
                                    JOINT RightFinger42
                                    {
                                        OFFSET  -1.858770   0.000000   0.000000
                                        CHANNELS 3 Zrotation Xrotation Yrotation
                                        End Site
                                        {
                                            OFFSET  -1.818440   0.000000   0.000000
                                        }
                                    }
                                }
                            }
                        }
                    }
                }
            }
        }
    }
    JOINT LeftHip
    {
        OFFSET   9.783040   0.000000   0.000000
        CHANNELS 3 Zrotation Xrotation Yrotation
        JOINT LeftKnee
        {
            OFFSET   0.000032 -41.789100  -0.002222
            CHANNELS 3 Zrotation Xrotation Yrotation
            JOINT LeftAnkle
            {
                OFFSET   0.000087 -41.133200  -0.000135
                CHANNELS 3 Zrotation Xrotation Yrotation
                JOINT LeftToe
                {
                    OFFSET   0.000000  -6.358960  14.674500
                    CHANNELS 3 Zrotation Xrotation Yrotation
                    End Site
                    {
                        OFFSET   0.000000   0.000000   3.913200
                    }
                }
            }
        }
    }
    JOINT RightHip
    {
        OFFSET  -9.783040   0.000000   0.000000
        CHANNELS 3 Zrotation Xrotation Yrotation
        JOINT RightKnee
        {
            OFFSET   0.000047 -41.789100  -0.000896
            CHANNELS 3 Zrotation Xrotation Yrotation
            JOINT RightAnkle
            {
                OFFSET  -0.000117 -41.133300  -0.000248
                CHANNELS 3 Zrotation Xrotation Yrotation
                JOINT RightToe
                {
                    OFFSET   0.000000  -6.358970  14.674500
                    CHANNELS 3 Zrotation Xrotation Yrotation
                    End Site
                    {
                        OFFSET   0.000000   0.000000   3.913200
                    }
                }
            }
        }
    }
}
MOTION
Frames: 5
Frame Time:   0.016667
 -0.447271  89.478100   1.560540  -1.921330  -4.233650  -1.761620   1.413970   2.898330  -0.972086   2.882550   5.771300  -2.019440   1.023270   0.293936  -0.002067   1.680380   0.595729   3.983670  -6.737210   4.702780  -0.900849 -67.814600  19.180500  -5.446360  -2.844290  -5.785970 -12.609700   2.683770 -10.939600  11.357900  45.137200  35.246300 -74.882200 -19.264000   0.010812   0.009323  -4.632010  -0.008571  -0.008489 -37.487700   7.798700 -10.032800 -31.232700   0.001712  -0.000317 -21.862900   0.001453   0.000000 -28.888300   2.498300  -4.491830 -43.480100   0.000194   0.000423 -28.957800   0.002945   0.000247 -28.809800  -0.165275   0.282462 -43.215400   0.000258   0.001552 -28.781500   0.000159   0.001004 -38.018900  -0.522441   0.667886 -57.032900   0.002410   0.001302 -37.984000   0.009331  -0.001381   7.788630   0.070281   8.618410  69.719400  12.089000  -1.169820  -1.549450   0.844606  12.306400 -15.318500 -11.236400  -2.899130 -38.480300  38.571100  75.983400  33.668700   0.008706  -0.005627  11.823400   0.001521  -0.007860  46.767400   8.871920   8.250030  38.788800   0.004922  -0.002652  28.681800  -0.006264   0.000169  35.068200   2.373860   3.380270  52.707400   0.001759  -0.009517  35.103100  -0.000350  -0.004134  36.896600   2.479910   3.302730  54.092400   0.000553  -0.002408  36.297800   0.004233  -0.006929  48.190700  -3.826020  -3.413960  72.458400   0.005093  -0.011053  48.256400   0.000090  -0.005189   2.994510   7.852460   4.253660   0.264566   0.746974  13.432100  -2.975040  -3.465620   5.497610  -0.000000   0.000000   0.000000   0.515607   3.476470  -5.784540   1.596890   4.017610  -6.776900  -3.603610  -3.310670   1.051330  -0.000000   0.000000   0.000000
 -0.440373  89.478100   1.560470  -1.921070  -4.239850  -1.755960   1.414090   2.904590  -0.972247   2.882930   5.783810  -2.019940   1.019830   0.300752  -0.002069   1.675130   0.609618   4.003980  -6.736580   4.707340  -0.909540 -67.806700  19.186500  -5.449600  -2.846500  -5.792890 -12.607300   2.669590 -10.930200  11.341600  45.117000  35.232700 -74.872800 -19.249700   0.010813   0.009325  -4.624770  -0.008564  -0.008490 -37.496800   7.808460 -10.041200 -31.241700   0.001710  -0.000316 -21.869200   0.001453   0.000000 -28.895200   2.498590  -4.497390 -43.490500   0.000195   0.000425 -28.964700   0.002942   0.000248 -28.815700  -0.165575   0.281899 -43.224200   0.000260   0.001554 -28.787300   0.000157   0.001005 -38.031900  -0.524112   0.669679 -57.052500   0.002405   0.001304 -37.996900   0.009335  -0.001378   7.788190   0.072299   8.618410  69.721600  12.094600  -1.180170  -1.534740   0.836321  12.285100 -15.305400 -11.229200  -2.899060 -38.482300  38.574400  75.993700  33.665500   0.008695  -0.005629  11.823300   0.001518  -0.007852  46.762800   8.875530   8.255470  38.785600   0.004920  -0.002650  28.678600  -0.006265   0.000167  35.067400   2.377020   3.383290  52.706600   0.001756  -0.009519  35.102600  -0.000352  -0.004134  36.890700   2.483130   3.305920  54.092400   0.000553  -0.002407  36.297100   0.004233  -0.006929  48.190700  -3.826010  -3.414240  72.458200   0.005091  -0.011054  48.256400   0.000089  -0.005188   2.988300   7.869340   4.253830   0.264602   0.724176  13.432400  -2.967640  -3.454290   5.498230  -0.000000   0.000000  -0.000000   0.512043   3.509080  -5.784590   1.599170   3.997130  -6.778390  -3.597080  -3.310950   1.047470  -0.000000   0.000000   0.000000
 -0.429057  89.478100   1.560380  -1.920660  -4.250580  -1.746780   1.414290   2.915150  -0.972457   2.883540   5.804910  -2.020670   1.011430   0.312959  -0.002078   1.661830   0.634359   4.041250  -6.736500   4.716280  -0.922015 -67.794600  19.192300  -5.457230  -2.851570  -5.802500 -12.605000   2.653120 -10.916500  11.318000  45.089900  35.212400 -74.855400 -19.230300   0.010819   0.009334  -4.615160  -0.008557  -0.008495 -37.508800   7.818210 -10.049700 -31.252300   0.001706  -0.000313 -21.876600   0.001453  -0.000000 -28.905100   2.498870  -4.502960 -43.505400   0.000197   0.000432 -28.974600   0.002935   0.000251 -28.824400  -0.165994   0.281336 -43.237200   0.000266   0.001559 -28.796000   0.000153   0.001009 -38.047000  -0.526465   0.672667 -57.075100   0.002395   0.001311 -38.012000   0.009346  -0.001371   7.787400   0.076710   8.618390  69.724800  12.100100  -1.195770  -1.509940   0.820017  12.249500 -15.283000 -11.214500  -2.898910 -38.484400  38.577600  76.004100  33.658800   0.008685  -0.005637  11.823200   0.001512  -0.007843  46.752200   8.879140   8.260910  38.777500   0.004916  -0.002644  28.670800  -0.006266   0.000164  35.063800   2.384370   3.392210  52.701700   0.001750  -0.009521  35.099300  -0.000359  -0.004134  36.874100   2.490350   3.315230  54.092400   0.000551  -0.002403  36.293200   0.004234  -0.006930  48.190700  -3.826010  -3.414520  72.457000   0.005088  -0.011056  48.256400   0.000086  -0.005187   2.978610   7.889170   4.254030   0.264639   0.701378  13.432700  -2.956690  -3.442960   5.498850   0.000000   0.000000   0.000000   0.505238   3.542430  -5.784590   1.601580   3.976640  -6.781730  -3.587590  -3.311230   1.041360  -0.000000   0.000000   0.000000
 -0.420341  89.478100   1.560350  -1.920340  -4.260100  -1.739800   1.414430   2.923700  -0.972516   2.884100   5.822000  -2.021090   0.998015   0.324984  -0.002116   1.639720   0.658360   4.079680  -6.739910   4.727600  -0.927103 -67.788400  19.183400  -5.468000  -2.859500  -5.804420 -12.612200   2.652170 -10.908700  11.307800  45.087100  35.199300 -74.832800 -19.224000   0.010835   0.009350  -4.612390  -0.008559  -0.008514 -37.512300   7.816860 -10.047800 -31.254000   0.001702  -0.000307 -21.877800   0.001456   0.000035 -28.909600   2.495840  -4.502760 -43.512000   0.000198   0.000443 -28.978900   0.002923   0.000259 -28.828800  -0.166176   0.286958 -43.244100   0.000275   0.001572 -28.800400   0.000147   0.001016 -38.048500  -0.527346   0.675120 -57.077500   0.002382   0.001322 -38.013600   0.009364  -0.001362   7.786530   0.082811   8.617620  69.727000  12.100000  -1.206220  -1.488370   0.799357  12.221200 -15.262000 -11.191800  -2.898920 -38.497200  38.580400  75.999000  33.647600   0.008691  -0.005660  11.823500   0.001509  -0.007846  46.737500   8.867160   8.254300  38.764400   0.004915  -0.002636  28.658000  -0.006263   0.000163  35.053800   2.395960   3.409710  52.687800   0.001745  -0.009524  35.090100  -0.000367  -0.004137  36.843100   2.501300   3.333280  54.092400   0.000545  -0.002395  36.283000   0.004235  -0.006930  48.178500  -3.821430  -3.412440  72.437900   0.005085  -0.011058  48.244000   0.000082  -0.005184   2.971790   7.892620   4.254030   0.264647   0.707966  13.432600  -2.951570  -3.446170   5.496160   0.000000   0.000000  -0.000000   0.500194   3.542920  -5.784540   1.601300   3.986600  -6.787440  -3.583350  -3.310900   1.036200   0.000000   0.000000   0.000000
 -0.411928  89.478100   1.560340  -1.920060  -4.269930  -1.733440   1.414550   2.932700  -0.972531   2.884450   5.840020  -2.021310   0.983650   0.337071  -0.002146   1.615940   0.682539   4.119440  -6.744530   4.737900  -0.931117 -67.781900  19.174300  -5.481260  -2.868550  -5.807150 -12.623700   2.652330 -10.905500  11.299000  45.091100  35.192800 -74.818200 -19.222800   0.010859   0.009372  -4.611990  -0.008561  -0.008543 -37.513800   7.815510 -10.045900 -31.254500   0.001695  -0.000298 -21.878200   0.001460   0.000087 -28.913000   2.492800  -4.502550 -43.516500   0.000200   0.000458 -28.982000   0.002908   0.000270 -28.832700  -0.166237   0.292579 -43.249600   0.000288   0.001589 -28.804300   0.000139   0.001026 -38.049700  -0.527895   0.677447 -57.079200   0.002365   0.001337 -38.014800   0.009389  -0.001350   7.785890   0.089431   8.616300  69.728300  12.099400  -1.211870  -1.468760   0.780459  12.191500 -15.244800 -11.176600  -2.899150 -38.516400  38.586300  75.992200  33.640100   0.008697  -0.005688  11.824200   0.001504  -0.007848  46.721900   8.855170   8.247700  38.750400   0.004912  -0.002624  28.644400  -0.006260   0.000163  35.043800   2.407420   3.427460  52.673800   0.001738  -0.009527  35.080800  -0.000377  -0.004143  36.811000   2.511980   3.351620  54.092400   0.000539  -0.002383  36.272100   0.004237  -0.006929  48.160100  -3.814530  -3.408800  72.410500   0.005080  -0.011059  48.225400   0.000071  -0.005181   2.965350   7.893110   4.253990   0.264716   0.721762  13.432500  -2.948280  -3.452750   5.491980   0.000000   0.000000   0.000000   0.495876   3.543410  -5.784450   1.600910   3.996580  -6.791550  -3.579940  -3.310580   1.033250  -0.000000   0.000000   0.000000
